<?xml version="1.0" encoding="utf-8"?>
<!-- Generator: Adobe Illustrator 24.3.0, SVG Export Plug-In . SVG Version: 6.00 Build 0)  -->
<svg version="1.1" id="Layer_1" xmlns="http://www.w3.org/2000/svg" xmlns:xlink="http://www.w3.org/1999/xlink" x="0px" y="0px"
	 viewBox="0 0 171.2 171.2" style="enable-background:new 0 0 171.2 171.2;" xml:space="preserve">
<style type="text/css">
	.st0{fill:none;}
	.st1{fill:#E9713E;}
	.st2{fill:none;stroke:#E9713E;stroke-miterlimit:10;}
</style>
<path class="st0" d="M61.6,61.6h48v48h-48C61.6,109.6,61.6,61.6,61.6,61.6z"/>
<path class="st1" d="M60.2,79.9C67,93.3,77.9,104.2,91.3,111l10.4-10.4c1.3-1.3,3.2-1.7,4.8-1.2c5.3,1.7,11,2.7,16.8,2.7
	c2.6,0,4.7,2.1,4.7,4.7v16.5c0,2.6-2.1,4.7-4.7,4.7C79,128,43.1,92.1,43.1,47.8c0-2.6,2.1-4.7,4.7-4.7h16.5c2.6,0,4.7,2.1,4.7,4.7
	c0,5.9,0.9,11.6,2.7,16.8c0.5,1.6,0.1,3.5-1.2,4.8L60.2,79.9z"/>
<circle class="st2" cx="85.6" cy="85.6" r="84.1"/>
</svg>
