<?xml version="1.0" encoding="utf-8"?>
<!-- Generator: Adobe Illustrator 24.3.0, SVG Export Plug-In . SVG Version: 6.00 Build 0)  -->
<svg version="1.1" id="Layer_1" xmlns="http://www.w3.org/2000/svg" xmlns:xlink="http://www.w3.org/1999/xlink" x="0px" y="0px"
	 viewBox="0 0 54.1 52.9" style="enable-background:new 0 0 54.1 52.9;" xml:space="preserve">
<style type="text/css">
	.st0{fill-rule:evenodd;clip-rule:evenodd;fill:#0C3B7C;}
	.st1{fill:#FFFFFF;}
	.st2{fill:#00BAFC;}
</style>
<g>
	<path class="st0" d="M54.1,10.2C54.1,4.6,49.6,0,43.9,0H10.2C4.6,0,0,4.6,0,10.2v32.6c0,5.6,4.6,10.2,10.2,10.2h33.8
		c5.6,0,10.2-4.6,10.2-10.2L54.1,10.2z"/>
	<path class="st0" d="M0,32.9h27v20H0L0,32.9z"/>
	<g>
		<path class="st1" d="M24.6,35l-4.4,0v-5.2c0-1.1,0.4-1.7,1.4-1.8h3c2.1,0,3.5,1.3,3.5,3.5C28.1,33.7,26.7,35,24.6,35L24.6,35z
			 M20.2,21v-1.4c0-1.2,0.5-1.8,1.6-1.8h2.2c1.9,0,3.1,1.1,3.1,3.1c0,1.5-0.8,3.2-3,3.2h-3.9V21z M30.2,26.2l-0.8-0.4l0.7-0.6
			c0.8-0.7,2.1-2.2,2.1-4.9c0-4.1-3.2-6.7-8.1-6.7h-5.6v0h-0.6c-1.5,0.1-2.6,1.2-2.6,2.7v23.2h9c5.5,0,9-3,9-7.6
			C33.2,29.4,32.1,27.2,30.2,26.2"/>
		<path class="st2" d="M35.5,36.2c0-1.8,1.4-3.2,3.2-3.2c1.8,0,3.2,1.4,3.2,3.2c0,1.8-1.4,3.2-3.2,3.2C37,39.4,35.5,38,35.5,36.2"/>
	</g>
</g>
</svg>
