<?xml version="1.0" encoding="utf-8"?>
<!-- Generator: Adobe Illustrator 24.3.0, SVG Export Plug-In . SVG Version: 6.00 Build 0)  -->
<svg version="1.1" id="Layer_1" xmlns="http://www.w3.org/2000/svg" xmlns:xlink="http://www.w3.org/1999/xlink" x="0px" y="0px"
	 viewBox="0 0 171.2 171.2" style="enable-background:new 0 0 171.2 171.2;" xml:space="preserve">
<style type="text/css">
	.st0{fill:#E9713E;}
	.st1{fill:#FFFFFF;}
	.st2{fill:none;stroke:#E9713E;stroke-miterlimit:10;}
</style>
<g>
	<path class="st0" d="M127.3,43h-10.6l0,0v-2.1c0-3.5-2.8-6.4-6.4-6.4s-6.4,2.8-6.4,6.4V43h-12v-2.1c0-3.5-2.8-6.4-6.4-6.4
		c-3.5,0-6.4,2.8-6.4,6.4V43h-12v-2.1c0-3.5-2.8-6.4-6.4-6.4c-3.5,0-6.4,2.8-6.4,6.4V43l0,0H43.9c-0.9,0-1.6,0.7-1.6,1.6v83.3
		c0,0.9,0.7,1.6,1.6,1.6h83.3c0.9,0,1.6-0.7,1.6-1.6V44.6C128.9,43.7,128.2,43,127.3,43z M107.1,40.9c0-1.7,1.4-3.1,3.1-3.1
		c1.7,0,3.1,1.4,3.1,3.1v8.9c0,1.7-1.4,3.1-3.1,3.1c-1.7,0-3.1-1.4-3.1-3.1V40.9z M85.6,37.8c1.7,0,3.1,1.4,3.1,3.1v8.9
		c0,1.7-1.4,3.1-3.1,3.1c-1.7,0-3.1-1.4-3.1-3.1v-5c0-0.1,0-0.1,0-0.2s0-0.1,0-0.2v-3.6C82.5,39.2,83.9,37.8,85.6,37.8z M57.8,40.9
		c0-1.7,1.4-3.1,3.1-3.1s3.1,1.4,3.1,3.1v8.9c0,1.7-1.4,3.1-3.1,3.1s-3.1-1.4-3.1-3.1V40.9z M125.7,126.3H45.5V46.2h9l0,0v3.5
		c0,3.5,2.8,6.4,6.4,6.4c3.5,0,6.4-2.8,6.4-6.4v-3.5h12v3.5c0,3.5,2.8,6.4,6.4,6.4c3.5,0,6.4-2.8,6.4-6.4v-3.5h12v3.5
		c0,3.5,2.8,6.4,6.4,6.4c3.5,0,6.4-2.8,6.4-6.4v-3.5l0,0h9v80.1L125.7,126.3L125.7,126.3z"/>
	<rect x="45.5" y="46.2" class="st0" width="80.4" height="80.1"/>
	<path class="st1" d="M66.5,77.8H56c-0.9,0-1.6,0.7-1.6,1.6v10.5c0,0.9,0.7,1.6,1.6,1.6h10.5c0.9,0,1.6-0.7,1.6-1.6V79.4
		C68.1,78.5,67.4,77.8,66.5,77.8z M64.9,88.2h-7.2V81h7.2V88.2z"/>
	<path class="st1" d="M90.9,77.8H80.4c-0.9,0-1.6,0.7-1.6,1.6v10.5c0,0.9,0.7,1.6,1.6,1.6h10.5c0.9,0,1.6-0.7,1.6-1.6V79.4
		C92.5,78.5,91.8,77.8,90.9,77.8z M89.3,88.2h-7.2V81h7.2V88.2z"/>
	<path class="st1" d="M114.5,77.8H104c-0.9,0-1.6,0.7-1.6,1.6v10.5c0,0.9,0.7,1.6,1.6,1.6h10.5c0.9,0,1.6-0.7,1.6-1.6V79.4
		C116.1,78.5,115.4,77.8,114.5,77.8z M112.9,88.2h-7.2V81h7.2V88.2z"/>
	<path class="st1" d="M66.5,98H56c-0.9,0-1.6,0.7-1.6,1.6v10.5c0,0.9,0.7,1.6,1.6,1.6h10.5c0.9,0,1.6-0.7,1.6-1.6V99.6
		C68.1,98.7,67.4,98,66.5,98z M64.9,108.4h-7.2v-7.2h7.2V108.4z"/>
	<path class="st1" d="M90.9,98H80.4c-0.9,0-1.6,0.7-1.6,1.6v10.5c0,0.9,0.7,1.6,1.6,1.6h10.5c0.9,0,1.6-0.7,1.6-1.6V99.6
		C92.5,98.7,91.8,98,90.9,98z M89.3,108.4h-7.2v-7.2h7.2V108.4z"/>
	<path class="st1" d="M114.5,98H104c-0.9,0-1.6,0.7-1.6,1.6v10.5c0,0.9,0.7,1.6,1.6,1.6h10.5c0.9,0,1.6-0.7,1.6-1.6V99.6
		C116.1,98.7,115.4,98,114.5,98z M112.9,108.4h-7.2v-7.2h7.2V108.4z"/>
	<path class="st1" d="M66.8,56.5H56.3c-0.9,0-1.6,0.7-1.6,1.6v10.5c0,0.9,0.7,1.6,1.6,1.6h10.5c0.9,0,1.6-0.7,1.6-1.6V58.1
		C68.4,57.2,67.7,56.5,66.8,56.5z M65.2,66.9H58v-7.2h7.2V66.9z"/>
	<path class="st1" d="M91.2,56.5H80.7c-0.9,0-1.6,0.7-1.6,1.6v10.5c0,0.9,0.7,1.6,1.6,1.6h10.5c0.9,0,1.6-0.7,1.6-1.6V58.1
		C92.8,57.2,92.1,56.5,91.2,56.5z M89.6,66.9h-7.2v-7.2h7.2V66.9z"/>
	<path class="st1" d="M114.8,56.5h-10.5c-0.9,0-1.6,0.7-1.6,1.6v10.5c0,0.9,0.7,1.6,1.6,1.6h10.5c0.9,0,1.6-0.7,1.6-1.6V58.1
		C116.4,57.2,115.7,56.5,114.8,56.5z M113.2,66.9H106v-7.2h7.2V66.9z"/>
</g>
<g id="Layer_2_1_">
	<circle class="st2" cx="85.6" cy="85.6" r="84.1"/>
</g>
</svg>
