<?xml version="1.0" encoding="utf-8"?>
<!-- Generator: Adobe Illustrator 24.3.0, SVG Export Plug-In . SVG Version: 6.00 Build 0)  -->
<svg version="1.1" id="Outlined" xmlns="http://www.w3.org/2000/svg" xmlns:xlink="http://www.w3.org/1999/xlink" x="0px" y="0px"
	 viewBox="0 0 170.9 171.9" style="enable-background:new 0 0 170.9 171.9;" xml:space="preserve">
<style type="text/css">
	.st0{fill:#E9713E;}
	.st1{fill:none;stroke:#E9713E;stroke-miterlimit:10;}
</style>
<g>
	<g id="Fill">
		<path class="st0" d="M122.7,82.3c-1.6-17.4-15.4-31.1-32.8-32.6v-10h-6.6v10C66,51.3,52.3,65,50.7,82.3h-10v6.6h10
			c1.5,17.4,15.2,31.2,32.6,32.8v9.8h6.6v-9.8c17.4-1.5,31.3-15.3,32.8-32.8h9.8v-6.6H122.7z M86.6,115.1
			c-16.3,0-29.5-13.2-29.5-29.5s13.2-29.5,29.5-29.5s29.5,13.2,29.5,29.5S102.9,115.1,86.6,115.1z"/>
		<path class="st0" d="M86.6,72.5c-7.2,0-13.1,5.9-13.1,13.1c0,7.2,5.9,13.1,13.1,13.1s13.1-5.9,13.1-13.1
			C99.7,78.4,93.8,72.5,86.6,72.5z M86.6,92.2c-3.6,0-6.6-2.9-6.6-6.6c0-3.6,2.9-6.6,6.6-6.6c3.6,0,6.6,2.9,6.6,6.6
			C93.2,89.2,90.2,92.2,86.6,92.2z"/>
	</g>
	<g id="Layer_2_1_">
		<circle class="st1" cx="85.5" cy="85.9" r="84.1"/>
	</g>
</g>
</svg>
