<?xml version="1.0" encoding="utf-8"?>
<!-- Generator: Adobe Illustrator 24.3.0, SVG Export Plug-In . SVG Version: 6.00 Build 0)  -->
<svg version="1.1" id="Layer_1" xmlns="http://www.w3.org/2000/svg" xmlns:xlink="http://www.w3.org/1999/xlink" x="0px" y="0px"
	 viewBox="0 0 171.6 171.6" style="enable-background:new 0 0 171.6 171.6;" xml:space="preserve">
<style type="text/css">
	.st0{fill:none;}
	.st1{fill:#E9713E;}
	.st2{fill:#FFFFFF;}
	.st3{fill:none;stroke:#E9713E;stroke-miterlimit:10;}
</style>
<g id="main">
	<g>
		<rect id="canvas_background" x="-51.2" y="93" class="st0" width="582" height="402"/>
	</g>
	<circle class="st1" cx="85.9" cy="86.9" r="61"/>
	<g>
		<path id="svg_2" class="st2" d="M85.9,147.9c34.2,0,62-27.8,62-62s-27.8-62-62-62s-62,27.8-62,62S51.7,147.9,85.9,147.9z
			 M37.9,110.6l25.2-0.2c2.8,10.1,7.5,19.9,13.9,28.7C59.9,136.3,45.6,125.4,37.9,110.6z M69.5,68.9h31.4c2.3,11,2.3,22.3,0.2,33.3
			l-31.6,0.2C67.2,91.3,67.2,79.9,69.5,68.9z M85.2,136.8c-6.3-8.1-10.9-17-13.7-26.4l27.5-0.2C96.1,119.6,91.5,128.6,85.2,136.8z
			 M93.2,139.4c6.6-9,11.3-18.9,14.1-29.3l26.9-0.2C126.4,125.6,111.2,136.9,93.2,139.4z M139.9,85.9c0,5.6-0.9,11-2.4,16l-28.3,0.2
			c2-11,1.9-22.2-0.2-33.2h28.1C138.9,74.2,139.9,80,139.9,85.9z M133.7,60.9h-26.6c-2.9-10-7.5-19.7-13.9-28.5
			C110.9,34.8,125.8,45.7,133.7,60.9z M98.8,60.9H71.6C74.5,51.7,79,43,85.2,35C91.4,43,95.9,51.7,98.8,60.9z M77,32.7
			c-6.3,8.7-10.9,18.2-13.7,28.2H38.1C45.8,46.2,60,35.5,77,32.7z M61.4,68.9c-2.1,11.1-2.1,22.4-0.1,33.5l-26.7,0.2
			c-1.8-5.3-2.7-10.9-2.7-16.7c0-5.9,1-11.7,2.8-17C34.7,68.9,61.4,68.9,61.4,68.9z"/>
	</g>
</g>
<g id="Layer_2_1_">
	<circle class="st3" cx="85.9" cy="85.9" r="84.1"/>
</g>
</svg>
