<?xml version="1.0" encoding="utf-8"?>
<!-- Generator: Adobe Illustrator 24.3.0, SVG Export Plug-In . SVG Version: 6.00 Build 0)  -->
<svg version="1.1" id="Layer_1" xmlns="http://www.w3.org/2000/svg" xmlns:xlink="http://www.w3.org/1999/xlink" x="0px" y="0px"
	 viewBox="0 0 170.8 170.6" style="enable-background:new 0 0 170.8 170.6;" xml:space="preserve">
<style type="text/css">
	.st0{fill:#E9713E;}
	.st1{fill:none;}
	.st2{fill:none;stroke:#E9713E;stroke-miterlimit:10;}
</style>
<path class="st0" d="M85.5,36.2c-18.9,0-34.3,15.4-34.3,34.3c0,25.7,34.3,63.7,34.3,63.7s34.3-38,34.3-63.7
	C119.8,51.6,104.4,36.2,85.5,36.2z M85.5,82.8c-6.8,0-12.2-5.5-12.2-12.2c0-6.8,5.5-12.2,12.2-12.2c6.8,0,12.2,5.5,12.2,12.2
	C97.8,77.3,92.3,82.8,85.5,82.8z"/>
<path class="st1" d="M61.5,61.2h48v48h-48C61.5,109.2,61.5,61.2,61.5,61.2z"/>
<circle class="st2" cx="85.5" cy="85.2" r="84.1"/>
</svg>
