<?xml version="1.0" encoding="utf-8"?>
<!-- Generator: Adobe Illustrator 24.3.0, SVG Export Plug-In . SVG Version: 6.00 Build 0)  -->
<svg version="1.1" id="Layer_1" xmlns="http://www.w3.org/2000/svg" xmlns:xlink="http://www.w3.org/1999/xlink" x="0px" y="0px"
	 viewBox="0 0 171.6 171.6" style="enable-background:new 0 0 171.6 171.6;" xml:space="preserve">
<style type="text/css">
	.st0{fill-rule:evenodd;clip-rule:evenodd;fill:#E9713E;}
	.st1{fill:none;stroke:#E9713E;stroke-miterlimit:10;}
</style>
<g id="main" xmlns:serif="http://www.serif.com/">
	<path class="st0" d="M77.7,138.2c-25.1-4-44.4-25.7-44.4-52c0-29,23.6-52.6,52.6-52.6s52.6,23.6,52.6,52.6c0,26.2-19.3,48-44.4,52
		v-36.8h12.3l2.3-15.2H94.1v-9.9c0-4.2,2-8.2,8.6-8.2h6.6V55.2c0,0-6-1-11.8-1c-12,0-19.9,7.3-19.9,20.5v11.6H64.2v15.2h13.4
		L77.7,138.2L77.7,138.2z"/>
</g>
<g id="Layer_2_1_">
	<circle class="st1" cx="85.9" cy="85.9" r="84.1"/>
</g>
</svg>
