<?xml version="1.0" encoding="utf-8"?>
<!-- Generator: Adobe Illustrator 24.3.0, SVG Export Plug-In . SVG Version: 6.00 Build 0)  -->
<svg version="1.1" id="Layer_1" xmlns="http://www.w3.org/2000/svg" xmlns:xlink="http://www.w3.org/1999/xlink" x="0px" y="0px"
	 viewBox="0 0 470.5 471" style="enable-background:new 0 0 470.5 471;" xml:space="preserve">
<style type="text/css">
	.st0{fill:#FFFFFF;}
</style>
<path class="st0" d="M235.2,178.7c-31.3,0-56.7,25.4-56.7,56.7s25.4,56.7,56.7,56.7s56.7-25.4,56.7-56.7
	C291.9,204.1,266.5,178.8,235.2,178.7z"/>
<path class="st0" d="M302,90.9H168.5c-42.9,0-77.7,34.8-77.8,77.8v133.5c0,42.9,34.8,77.7,77.8,77.8H302c42.9,0,77.7-34.8,77.8-77.8
	V168.7C379.7,125.8,344.9,91,302,90.9z M235.2,322.2c-47.9,0-86.7-38.8-86.7-86.7c0-47.9,38.8-86.7,86.7-86.7
	c47.9,0,86.7,38.8,86.7,86.7C321.9,283.3,283.1,322.1,235.2,322.2z M330.5,161.9c-11.8,0-21.4-9.6-21.4-21.4
	c0-11.8,9.6-21.4,21.4-21.4c11.8,0,21.4,9.6,21.4,21.4C351.9,152.3,342.4,161.9,330.5,161.9C330.5,161.9,330.5,161.9,330.5,161.9
	L330.5,161.9z"/>
<path class="st0" d="M470.1,110.2c0-8.5-0.8-16.9-2.3-25.3c-1.9-10.2-4.7-20.1-9.5-29.3c-5.1-9.7-11.7-18.5-19.6-26.1
	C426.7,17.8,412,9.4,395.9,5c-14.8-4-30-4.8-45.2-4.8c-0.1-0.1-0.1-0.1-0.1-0.2H119.8c0,0.1,0,0.2,0,0.2c-8.7,0.2-17.3,0.1-25.9,1.2
	c-9.4,1-18.7,3.1-27.7,6.2C52.3,12.7,39.7,21,29.5,31.7C17.7,43.7,9.3,58.4,4.9,74.6C1,89.3,0.1,104.3,0.1,119.5l-0.2,231.7l0,0
	c0.3,10.5,0.4,21,2.1,31.4c1.9,11,4.5,21.7,9.6,31.7c6.8,13.4,16.4,25.1,28.3,34.3c8.5,6.7,18,11.9,28.3,15.4
	c15.1,4.9,30.7,6.8,46.6,6.8c9.9,0.1,19.7,0.3,29.6,0.3c71.7-0.3,143.5,0.5,215.2-0.4c9.5-0.2,18.9-1.2,28.2-3
	c17.6-3.1,34-11.1,47.3-23c15.8-14.1,26.4-31.3,31.2-52.1c3.1-13.6,3.9-27.4,4.1-41.2v-2.8C470.5,347.3,470.1,113.3,470.1,110.2z
	 M409.7,302.2c-0.1,59.5-48.3,107.7-107.7,107.7H168.5C109,409.9,60.8,361.7,60.7,302.2V168.7C60.8,109.2,109,61,168.5,61H302
	c59.5,0.1,107.7,48.3,107.7,107.7L409.7,302.2z"/>
</svg>
