<?xml version="1.0" encoding="utf-8"?>
<!-- Generator: Adobe Illustrator 24.3.0, SVG Export Plug-In . SVG Version: 6.00 Build 0)  -->
<svg version="1.1" id="Layer_1" xmlns:serif="http://www.serif.com/"
	 xmlns="http://www.w3.org/2000/svg" xmlns:xlink="http://www.w3.org/1999/xlink" x="0px" y="0px" viewBox="0 0 1080 1080"
	 style="enable-background:new 0 0 1080 1080;" xml:space="preserve">
<style type="text/css">
	.st0{fill:#FFFFFF;}
</style>
<path class="st0" d="M540,0C241.8,0,0,241.7,0,540c0,228.8,142.3,424.3,343.2,503c-4.7-42.7-9-108.4,1.9-155.1
	c9.8-42.1,63.3-268.4,63.3-268.4s-16.2-32.3-16.2-80.2c0-75.1,43.5-131.1,97.7-131.1c46.1,0,68.3,34.6,68.3,76.1
	c0,46.3-29.5,115.6-44.7,179.8c-12.7,53.8,27,97.6,80,97.6c96,0,169.8-101.2,169.8-247.3c0-129.3-92.9-219.7-225.6-219.7
	c-153.6,0-243.8,115.2-243.8,234.3c0,46.4,17.9,96.2,40.2,123.2c4.4,5.3,5.1,10,3.7,15.5c-4.1,17.1-13.2,53.7-15,61.2
	c-2.4,9.9-7.8,12-18.1,7.2c-67.4-31.4-109.6-130-109.6-209.2c0-170.3,123.8-326.8,356.8-326.8c187.3,0,332.9,133.5,332.9,311.9
	c0,186.1-117.3,335.9-280.2,335.9c-54.7,0-106.2-28.4-123.8-62c0,0-27.1,103.1-33.6,128.4c-12.2,46.9-45.1,105.7-67.1,141.6
	c50.5,15.6,104.2,24.1,159.9,24.1c298.2,0,540-241.8,540-540C1080,241.7,838.2,0,540,0L540,0z"/>
</svg>
