<?xml version="1.0" encoding="utf-8"?>
<!-- Generator: Adobe Illustrator 24.3.0, SVG Export Plug-In . SVG Version: 6.00 Build 0)  -->
<svg version="1.1" id="Layer_1" xmlns="http://www.w3.org/2000/svg" xmlns:xlink="http://www.w3.org/1999/xlink" x="0px" y="0px"
	 viewBox="0 0 898 600" style="enable-background:new 0 0 898 600;" xml:space="preserve">
<style type="text/css">
	.st0{clip-path:url(#SVGID_2_);}
	.st1{clip-path:url(#SVGID_4_);}
	.st2{fill:#012169;}
	.st3{stroke:#FFFFFF;stroke-width:120;stroke-miterlimit:80;}
	.st4{clip-path:url(#SVGID_6_);stroke:#C8102E;stroke-width:80;stroke-miterlimit:80;}
	.st5{stroke:#FFFFFF;stroke-width:200;stroke-miterlimit:80;}
	.st6{stroke:#C8102E;stroke-width:120;stroke-miterlimit:80;}
</style>
<g>
	<defs>
		<path id="SVGID_1_" d="M213.6,0h470.8C802.3,0,898,95.6,898,213.6v177.8c0,118-95.6,213.6-213.6,213.6H213.6
			C95.6,605,0,509.4,0,391.4V213.6C0,95.6,95.6,0,213.6,0z"/>
	</defs>
	<clipPath id="SVGID_2_">
		<use xlink:href="#SVGID_1_"  style="overflow:visible;"/>
	</clipPath>
	<g class="st0">
		<defs>
			<rect id="SVGID_3_" x="-151" width="1200" height="600"/>
		</defs>
		<clipPath id="SVGID_4_">
			<use xlink:href="#SVGID_3_"  style="overflow:visible;"/>
		</clipPath>
		<g class="st1">
			<path class="st2" d="M-151,0v600h1200V0H-151z"/>
			<path class="st3" d="M-151,0l1200,600 M1049,0L-151,600"/>
			<g>
				<defs>
					<polygon id="SVGID_5_" points="449,300 1049,300 1049,600 449,600 -151,600 -151,300 -151,0 449,0 1049,0 					"/>
				</defs>
				<clipPath id="SVGID_6_">
					<use xlink:href="#SVGID_5_"  style="overflow:visible;"/>
				</clipPath>
				<path class="st4" d="M-151,0l1200,600 M1049,0L-151,600"/>
			</g>
			<path class="st5" d="M449,0v600 M-151,300h1200"/>
			<path class="st6" d="M449,0v600 M-151,300h1200"/>
		</g>
	</g>
</g>
</svg>
