<?xml version="1.0" encoding="utf-8"?>
<!-- Generator: Adobe Illustrator 24.3.0, SVG Export Plug-In . SVG Version: 6.00 Build 0)  -->
<svg version="1.1" id="Layer_1" xmlns="http://www.w3.org/2000/svg" xmlns:xlink="http://www.w3.org/1999/xlink" x="0px" y="0px"
	 viewBox="0 0 54.1 54.1" style="enable-background:new 0 0 54.1 54.1;" xml:space="preserve">
<style type="text/css">
	.st0{fill:#E9713E;}
	.st1{fill:#FFFFFF;}
</style>
<circle class="st0" cx="27.1" cy="27.1" r="27.1"/>
<g>
	<path class="st1" d="M19.4,8.3c3,0,5.5,2.4,5.5,5.5c0,0,0,0,0,0h-1.6c0,0,0,0,0,0c0-2.1-1.7-3.8-3.8-3.8s-3.8,1.7-3.8,3.8
		c0,2,1.6,3.6,3.5,3.8v1.6C16.3,19,14,16.6,14,13.7C14,10.7,16.4,8.3,19.4,8.3z"/>
	<path class="st1" d="M32.7,14.4H19.8v10.4c0,4.7,3.5,8.6,8,9.1v10.7h-5.2v1.2h12v-1.2h-5.2V33.9c4.5-0.5,8-4.3,8-9.1V14.4h-3.8
		l0.7-3.4c0.1-0.5,0.5-0.9,1-0.9h4.8v-1h-4.8c-0.9,0-1.7,0.7-1.9,1.7L32.7,14.4z M32.1,21.9l1.2-5.9h2.5v5.7L32.1,21.9z M23.8,24.6
		l0.2-1.3c0-0.2,0.2-0.4,0.5-0.3l1.3,0.2c0.2,0,0.4,0.2,0.3,0.5L25.8,25c0,0.2-0.2,0.4-0.5,0.3L24.1,25C23.9,25,23.8,24.8,23.8,24.6
		z M32.3,16l-1.2,6l-1.1,0.1c0.1,0.2,0.1,0.4-0.1,0.6l-1.1,1.4c-0.2,0.2-0.5,0.3-0.8,0.1L26.7,23c-0.2-0.2-0.3-0.5-0.1-0.7l-5.1,0.3
		V16H32.3z"/>
	<path class="st1" d="M26.5,21.5c-0.1,0.2-0.3,0.4-0.6,0.3l-1.4-0.4c-0.2-0.1-0.4-0.3-0.3-0.6l0.4-1.4c0.1-0.2,0.3-0.4,0.6-0.3
		l1.4,0.4c0.2,0.1,0.4,0.3,0.3,0.6L26.5,21.5z"/>
	<path class="st1" d="M27.8,20.8c0.2-0.2,0.5-0.3,0.8-0.1l1.4,1.1c0.1,0,0.1,0.1,0.1,0.2l-3.5,0.2c0,0,0-0.1,0.1-0.1L27.8,20.8z"/>
</g>
</svg>
