<?xml version="1.0" encoding="utf-8"?>
<!-- Generator: Adobe Illustrator 24.3.0, SVG Export Plug-In . SVG Version: 6.00 Build 0)  -->
<svg version="1.1" id="Layer_1" xmlns="http://www.w3.org/2000/svg" xmlns:xlink="http://www.w3.org/1999/xlink" x="0px" y="0px"
	 viewBox="0 0 54.1 54.1" style="enable-background:new 0 0 54.1 54.1;" xml:space="preserve">
<style type="text/css">
	.st0{fill:#E9713E;}
	.st1{fill:#FFFFFF;}
</style>
<circle class="st0" cx="27.1" cy="27.1" r="27.1"/>
<path class="st1" d="M50.1,23.8h-3.3c-0.2-1-1-1.8-2-1.8h-1.4c-0.1,0-0.2-0.3-0.2-0.3v-3c0-1.1-0.9-2.2-2.1-2.2h-3.2
	c-1.1,0-2.1,1.1-2.1,2.2v5.1H18.3v-5.1c0-1.1-0.9-2.2-2.1-2.2H13c-1.1,0-2.1,1.1-2.1,2.2v3c0,0-0.2,0.3-0.2,0.3H9.3
	c-1,0-1.8,0.9-2,1.8H4.1v6.4h3.2c0,1.1,0.9,1.8,2.1,1.8h1.4c0.1,0,0.2,0.2,0.2,0.2v3.4c0,1.1,0.9,1.9,2.1,1.9h3.2
	c1.1,0,2.1-0.8,2.1-1.9v-5.4h17.5v5.4c0,1.1,0.9,1.9,2.1,1.9h3.2c1.1,0,2.1-0.8,2.1-1.9v-3.5c0,0,0.2-0.1,0.2-0.1h1.4
	c1.1,0,2-0.7,2.1-1.8h3.2V23.8z M5.9,25.7h1.4v2.8H5.9V25.7z M11,30c0,0.1-0.1,0.2-0.2,0.2H9.3c-0.1,0-0.2-0.1-0.2-0.2v-6
	c0-0.1,0.1-0.2,0.2-0.2h1.4c0.1,0,0.2,0.1,0.2,0.2V30z M16.5,35.7c0,0.1-0.1,0.1-0.2,0.1H13c-0.1,0-0.2,0-0.2-0.1v-5.5v-6v-5.5
	c0-0.1,0.1-0.4,0.2-0.4h3.2c0.1,0,0.2,0.3,0.2,0.4V35.7z M18.3,28.4v-2.8h17.5v2.8H18.3z M41.3,35.7c0,0.1-0.1,0.1-0.2,0.1h-3.2
	c-0.1,0-0.2,0-0.2-0.1v-17c0-0.1,0.1-0.4,0.2-0.4h3.2c0.1,0,0.2,0.3,0.2,0.4v5.5v6V35.7z M45,30c0,0.1-0.1,0.2-0.2,0.2h-1.4
	c-0.1,0-0.2-0.1-0.2-0.2v-6c0-0.1,0.1-0.2,0.2-0.2h1.4c0.1,0,0.2,0.1,0.2,0.2V30z M48.2,28.4h-1.4v-2.8h1.4V28.4z"/>
</svg>
