<?xml version="1.0" encoding="utf-8"?>
<!-- Generator: Adobe Illustrator 24.3.0, SVG Export Plug-In . SVG Version: 6.00 Build 0)  -->
<svg version="1.1" id="Layer_3" xmlns="http://www.w3.org/2000/svg" xmlns:xlink="http://www.w3.org/1999/xlink" x="0px" y="0px"
	 viewBox="0 0 100 100" style="enable-background:new 0 0 100 100;" xml:space="preserve">
<style type="text/css">
	.st0{fill:#E9713E;}
	.st1{fill:#FFFFFF;}
</style>
<circle class="st0" cx="50" cy="50" r="50"/>
<g>
	<rect x="26.3" y="64.3" class="st1" width="47.3" height="7.5"/>
	<path class="st1" d="M67.2,57.1v-1.3l0,0l0,0v-0.1l0,0c-0.1-8.5-6.3-15.4-14.4-16.6v-2.9h2.7h1.8v-4.6c0-1-0.8-1.7-1.8-1.7h-0.8
		h-1.1h-7.2h-0.9h-1c-1,0-1.8,0.8-1.8,1.8v0.7V33v0.5v1.2v1.5h1.8h2.7v3c-7.8,1.4-13.7,8-14,16.1l0,0v0.4c0,0.1,0,0.1,0,0.2
		s0,0.1,0,0.2v1.1h-2.4v3.6h38.3v-3.6L67.2,57.1L67.2,57.1z"/>
	
		<rect x="32.2" y="27.2" transform="matrix(0.7069 -0.7073 0.7073 0.7069 -11.1858 32.8521)" class="st1" width="3.7" height="5.5"/>
	<rect x="63.5" y="28.3" transform="matrix(0.707 -0.7072 0.7072 0.707 -1.8906 55.6521)" class="st1" width="5.5" height="3.7"/>
	<rect x="48.2" y="20.8" class="st1" width="3.6" height="5.5"/>
</g>
</svg>
