<?xml version="1.0" encoding="utf-8"?>
<!-- Generator: Adobe Illustrator 24.3.0, SVG Export Plug-In . SVG Version: 6.00 Build 0)  -->
<svg version="1.1" id="Layer_1" xmlns="http://www.w3.org/2000/svg" xmlns:xlink="http://www.w3.org/1999/xlink" x="0px" y="0px"
	 viewBox="0 0 100 100" style="enable-background:new 0 0 100 100;" xml:space="preserve">
<style type="text/css">
	.st0{fill:#E9713E;}
	.st1{fill:#FFFFFF;}
</style>
<circle class="st0" cx="50" cy="50" r="50"/>
<g id="Layer_3">
	<g>
		<circle class="st1" cx="44.5" cy="27.5" r="5"/>
		<path class="st1" d="M43.2,60.4c-2.3,0-4.2-1.5-4.8-3.6l0,0v-0.1c-0.1-0.3-0.1-0.6-0.1-0.9l0,0l-0.7-9.3l0,0l-0.3-3.6L36.7,37
			h-0.6h-2.7h-2.8h-0.4l0,0l0,0h-0.1h-1.5v0.4v2.7l0,0h1.5h0.1l0,0l0,0H31h2.3L34,48c-2.4,3.1-3.8,6.9-3.8,11.1
			c0,10.1,8.2,18.2,18.2,18.2c6.5,0,12.2-3.4,15.4-8.6l-5.1-8.5L43.2,60.4L43.2,60.4z"/>
		<path class="st1" d="M76.2,62.1c-0.5,0-0.9,0.2-1.3,0.5l-2.7,1.7l-7.5-12.5h-0.1c-0.6-1-1.7-1.7-3-1.7c-0.1,0-0.2,0-0.3,0l0,0
			H50.6l-0.9-11.7l0,0v-0.6l0,0c-0.3-1.5-0.9-2.3-0.9-2.3l0,0c-0.9-1.2-2.3-2.1-4-2.1c-2.7,0-5,2.2-5,5c0,0.1,0,0.2,0,0.3l0,0
			l0.4,5.1l0.7,9.1l0,0c0,0.3,0.1,0.6,0.1,0.9v0.1l0,0c0.6,2.1,2.5,3.6,4.8,3.6h15.5l5.9,10l0,0l1.6,2.5l0.5,0.9l0,0l0.1,0.2l6.3-4
			c0.9-0.5,1.8-1.3,1.9-1.4c0.3-0.4,0.6-0.8,0.6-1.4C78.3,63,77.3,62.1,76.2,62.1z"/>
	</g>
</g>
</svg>
