<?xml version="1.0" encoding="utf-8"?>
<!-- Generator: Adobe Illustrator 24.3.0, SVG Export Plug-In . SVG Version: 6.00 Build 0)  -->
<svg version="1.1" id="Layer_1" xmlns="http://www.w3.org/2000/svg" xmlns:xlink="http://www.w3.org/1999/xlink" x="0px" y="0px"
	 viewBox="0 0 100 100" style="enable-background:new 0 0 100 100;" xml:space="preserve">
<style type="text/css">
	.st0{fill:#E9713E;}
	.st1{fill:none;stroke:#FFFFFF;stroke-width:2;stroke-linejoin:round;}
	.st2{fill:none;stroke:#FFFFFF;stroke-width:2;stroke-linecap:round;stroke-linejoin:round;}
</style>
<circle class="st0" cx="50" cy="50" r="50"/>
<g id="takeaway_food">
	<path class="st1" d="M67,70v3c0,1.1-0.9,2-2,2H43c-1.1,0-2-0.9-2-2v-3"/>
	<path class="st1" d="M39,69c3.8,0,3.8,2,7.5,2s3.8-2,7.5-2s3.8,2,7.5,2s3.8-2,7.5-2"/>
	<path class="st1" d="M68,63c0-4.4-6.3-8-14-8s-14,3.6-14,8v2h19l1.6,1.5c0.8,0.7,2,0.7,2.8,0L65,65h3V63z"/>
	<line class="st2" x1="47" y1="61" x2="48" y2="60"/>
	<line class="st2" x1="54" y1="58" x2="55" y2="59"/>
	<line class="st2" x1="61" y1="61" x2="62" y2="61"/>
	<polygon class="st1" points="71,37 79,51 79,79 54,79 29,79 29,51 37,37 	"/>
	<path class="st1" d="M61,41c1.7,0,3,1.3,3,3s-1.3,3-3,3H47c-1.7,0-3-1.3-3-3s1.3-3,3-3H61z"/>
	<line class="st1" x1="29" y1="51" x2="79" y2="51"/>
	<polyline class="st1" points="61,37 61,21 21,21 21,75 29,75 	"/>
	<path class="st1" d="M49,31c1.7,0,3-1.3,3-3s-1.3-3-3-3H33c-1.7,0-3,1.3-3,3s1.3,3,3,3H49z"/>
</g>
</svg>
