<?xml version="1.0" encoding="utf-8"?>
<!-- Generator: Adobe Illustrator 24.3.0, SVG Export Plug-In . SVG Version: 6.00 Build 0)  -->
<svg version="1.1" id="Icons" xmlns="http://www.w3.org/2000/svg" xmlns:xlink="http://www.w3.org/1999/xlink" x="0px" y="0px"
	 viewBox="0 0 54.1 54.1" style="enable-background:new 0 0 54.1 54.1;" xml:space="preserve">
<style type="text/css">
	.st0{fill:#E9713E;}
	.st1{fill:#FFFFFF;}
</style>
<circle class="st0" cx="27.1" cy="27.1" r="27.1"/>
<g>
	<path class="st1" d="M31.7,23.9c0.2,0.2,0.5,0.3,0.7,0.3s0.5-0.1,0.7-0.3l5.4-5.4c0.4-0.4,0.4-1,0-1.4c-0.4-0.4-1-0.4-1.4,0
		l-5.4,5.4C31.3,22.9,31.3,23.5,31.7,23.9z"/>
	<path class="st1" d="M41.2,21.2c0.4-0.4,0.4-1,0-1.4c-0.4-0.4-1-0.4-1.4,0l-4.9,4.9c-1.3,1.3-2.5,2-3.7,2c-0.2,0-0.5,0-0.7,0.1
		l-1.7-1.7c0-0.2,0.1-0.5,0.1-0.7c0.1-1.1,0.8-2.4,2-3.7l4.9-4.9c0.4-0.4,0.4-1,0-1.4c-0.4-0.4-1-0.4-1.4,0l-4.9,4.9
		c-1.3,1.3-2.1,2.7-2.5,4l-8.7-8.7c-0.4-0.4-1-0.4-1.4,0c-2.9,2.9-2.9,7.7,0,10.7l8.3,8.3c0.3,0.3,0.7,0.4,1.1,0.2
		c1.1-0.5,2.4-0.2,3.2,0.8l4.1,5.1c0.6,0.8,1.5,1.2,2.5,1.3c0.1,0,0.1,0,0.2,0c0.9,0,1.8-0.4,2.5-1c0.7-0.7,1-1.5,1-2.5
		s-0.4-1.8-1-2.5l-6.5-6.5c1.3-0.3,2.7-1.1,4-2.5L41.2,21.2z"/>
	<path class="st1" d="M15.8,35.3c-0.7,0.6-1.2,1.4-1.3,2.3c-0.1,0.9,0.3,1.8,0.9,2.5c0.6,0.7,1.4,1,2.3,1c0.1,0,0.2,0,0.2,0
		c0.9-0.1,1.8-0.5,2.3-1.2l3.7-4.6l-3.6-3.6L15.8,35.3z"/>
</g>
</svg>
