<?xml version="1.0" encoding="utf-8"?>
<!-- Generator: Adobe Illustrator 24.3.0, SVG Export Plug-In . SVG Version: 6.00 Build 0)  -->
<svg version="1.1" id="Layer_1" xmlns="http://www.w3.org/2000/svg" xmlns:xlink="http://www.w3.org/1999/xlink" x="0px" y="0px"
	 viewBox="0 0 100 100" style="enable-background:new 0 0 100 100;" xml:space="preserve">
<style type="text/css">
	.st0{fill:#E9713E;}
	.st1{fill:#FFFFFF;}
</style>
<circle class="st0" cx="50" cy="50" r="50"/>
<g>
	<path class="st1" d="M50,59.2c-5.1,0-9.2,4.1-9.2,9.2s4.1,9.2,9.2,9.2s9.2-4.1,9.2-9.2C59.2,63.3,55.1,59.2,50,59.2z"/>
	<path class="st1" d="M30.5,48.9c-1.8,1.8-1.8,4.7,0,6.5s4.7,1.8,6.5,0c7.2-7,18.7-7,25.9,0c0.9,0.9,2,1.4,3.3,1.4
		c2.5,0,4.6-2.1,4.6-4.6c0-1.2-0.5-2.4-1.3-3.2C59,38.4,41,38.4,30.5,48.9z"/>
	<path class="st1" d="M82.4,36c-17.5-17.9-46.2-18.2-64.1-0.7c-0.2,0.2-0.5,0.5-0.7,0.7c-1.8,1.8-1.8,4.7,0,6.5s4.7,1.8,6.5,0
		c13.9-14.1,37.8-14.1,51.7,0c1.8,1.8,4.7,1.8,6.5,0C84.2,40.7,84.2,37.8,82.4,36L82.4,36z"/>
</g>
</svg>
