<?xml version="1.0" encoding="utf-8"?>
<!-- Generator: Adobe Illustrator 24.3.0, SVG Export Plug-In . SVG Version: 6.00 Build 0)  -->
<svg version="1.0" id="Layer_1" xmlns="http://www.w3.org/2000/svg" xmlns:xlink="http://www.w3.org/1999/xlink" x="0px" y="0px"
	 viewBox="0 0 32 28" style="enable-background:new 0 0 32 28;" xml:space="preserve">
<style type="text/css">
	.st0{fill:#E9713E;}
</style>
<g id="Layer_1_1_">
</g>
<g id="spin">
	<g>
		<path class="st0" d="M25.9,23.9l-2.8-2.8C21.2,23,18.7,24,16,24c-5.5,0-10-4.5-10-10h2l-4-4l-4,4h2c0,7.7,6.3,14,14,14
			C19.7,28,23.3,26.5,25.9,23.9z"/>
		<path class="st0" d="M28,18l4-4h-2c0-7.7-6.3-14-14-14c-3.7,0-7.3,1.5-9.9,4.1l2.8,2.8C10.8,5,13.3,4,16,4c5.5,0,10,4.5,10,10h-2
			L28,18z"/>
	</g>
</g>
</svg>
