<?xml version="1.0" encoding="utf-8"?>
<!-- Generator: Adobe Illustrator 24.3.0, SVG Export Plug-In . SVG Version: 6.00 Build 0)  -->
<svg version="1.0" id="Layer_1" xmlns="http://www.w3.org/2000/svg" xmlns:xlink="http://www.w3.org/1999/xlink" x="0px" y="0px"
	 viewBox="0 0 349.9 419.7" style="enable-background:new 0 0 349.9 419.7;" xml:space="preserve">
<style type="text/css">
	.st0{fill:#E9713E;}
</style>
<g id="C_-_93_x2C__Contract_x2C__document_x2C__file_x2C__page_x2C__paper_x2C__sign_x2C__signing">
	<g>
		<polygon class="st0" points="80.4,40 80.4,26.8 53.9,26.8 53.9,196.2 80.4,196.2 		"/>
		<polygon class="st0" points="78.6,205.6 55.7,205.6 67.2,239.8 		"/>
		<rect x="53.9" class="st0" width="26.5" height="17.4"/>
		<path class="st0" d="M89.8,44.7v156.2c0,0,0,0.1,0,0.1c0,0.3,0,0.6-0.1,0.8c0,0,0,0,0,0c0,0.2-0.1,0.4-0.1,0.5l-18,53.6
			c-0.6,1.9-2.4,3.2-4.4,3.2c-2,0-3.8-1.3-4.4-3.2l-18-53.6c-0.1-0.2-0.1-0.3-0.1-0.5c0,0,0,0,0,0c0,0,0,0,0,0
			c-0.1-0.3-0.1-0.5-0.1-0.8c0,0,0-0.1,0-0.1V44.7H0L0,419.7H296v-48.9c0-2.6,2.1-4.7,4.7-4.7h49.1V44.7H89.8z M121,102.6h152.7
			c2.6,0,4.7,2.1,4.7,4.7s-2.1,4.7-4.7,4.7H121c-2.6,0-4.7-2.1-4.7-4.7S118.5,102.6,121,102.6z M121,136h98.8c2.6,0,4.7,2.1,4.7,4.7
			s-2.1,4.7-4.7,4.7H121c-2.6,0-4.7-2.1-4.7-4.7S118.5,136,121,136z M121,169.4h98.8c2.6,0,4.7,2.1,4.7,4.7s-2.1,4.7-4.7,4.7H121
			c-2.6,0-4.7-2.1-4.7-4.7S118.5,169.4,121,169.4z M121,202.8h98.8c2.6,0,4.7,2.1,4.7,4.7s-2.1,4.7-4.7,4.7H121
			c-2.6,0-4.7-2.1-4.7-4.7S118.5,202.8,121,202.8z M216.3,355.2h-176c-2.6,0-4.7-2.1-4.7-4.7s2.1-4.7,4.7-4.7h176
			c2.6,0,4.7,2.1,4.7,4.7S218.8,355.2,216.3,355.2z M309.6,321.8H40.2c-2.6,0-4.7-2.1-4.7-4.7s2.1-4.7,4.7-4.7h269.4
			c2.6,0,4.7,2.1,4.7,4.7S312.2,321.8,309.6,321.8z"/>
		<polygon class="st0" points="305.4,413.1 343.3,375.4 305.4,375.4 		"/>
	</g>
</g>
<g id="Layer_1_1_">
</g>
</svg>
