<?xml version="1.0" encoding="utf-8"?>
<!-- Generator: Adobe Illustrator 24.3.0, SVG Export Plug-In . SVG Version: 6.00 Build 0)  -->
<svg version="1.0" id="Layer_1" xmlns="http://www.w3.org/2000/svg" xmlns:xlink="http://www.w3.org/1999/xlink" x="0px" y="0px"
	 viewBox="0 0 99.8 99.9" style="enable-background:new 0 0 99.8 99.9;" xml:space="preserve">
<style type="text/css">
	.st0{fill:#E9713E;}
</style>
<g id="footer_instagram" transform="translate(-14.7 -14.55)">
	<path id="Path_60" class="st0" d="M64.6,52.5c-6.6,0-12,5.4-12,12c0,6.6,5.4,12,12,12c6.6,0,12-5.4,12-12l0,0
		C76.6,57.8,71.3,52.5,64.6,52.5z"/>
	<path id="Path_61" class="st0" d="M78.8,33.8H50.5c-9.1,0-16.5,7.4-16.5,16.5v28.3c0,9.1,7.4,16.5,16.5,16.5h28.3
		c9.1,0,16.5-7.4,16.5-16.5V50.3C95.3,41.2,87.9,33.8,78.8,33.8z M64.6,82.9c-10.2,0-18.4-8.2-18.4-18.4c0-10.2,8.2-18.4,18.4-18.4
		c10.2,0,18.4,8.2,18.4,18.4S74.8,82.9,64.6,82.9C64.6,82.9,64.6,82.9,64.6,82.9z M84.8,48.9c-2.5,0-4.5-2-4.5-4.5
		c0-2.5,2-4.5,4.5-4.5s4.5,2,4.5,4.5c0,1.2-0.5,2.4-1.3,3.2C87.2,48.4,86,48.9,84.8,48.9z"/>
	<path id="Path_62" class="st0" d="M114.4,37.9c0-1.8-0.2-3.6-0.5-5.4c-0.4-2.2-1-4.3-2-6.2c-1.1-2.1-2.5-3.9-4.2-5.5
		c-2.5-2.5-5.7-4.3-9.1-5.2c-3.1-0.8-6.4-1.1-9.6-1c0,0,0,0,0,0H40.1v0c-1.8,0-3.7,0.1-5.5,0.2c-2,0.2-4,0.7-5.9,1.3
		c-6.4,2.4-11.2,7.7-13,14.2c-0.8,3.1-1.1,6.3-1,9.5l0,49.1l0,0c0,2.2,0.1,4.4,0.5,6.7c0.3,2.3,1,4.6,2,6.7c1.4,2.8,3.5,5.3,6,7.3
		c1.8,1.4,3.8,2.5,6,3.3c3.2,1,6.5,1.5,9.9,1.5c2.1,0,4.2,0.1,6.3,0.1c15.2-0.1,30.4,0.1,45.7-0.1c2,0,4-0.3,6-0.6
		c3.7-0.7,7.2-2.3,10-4.9c3.3-2.9,5.6-6.8,6.6-11.1c0.6-2.9,0.9-5.8,0.9-8.7v-0.6C114.5,88.2,114.4,38.6,114.4,37.9z M101.6,78.7
		c0,12.6-10.2,22.8-22.9,22.9H50.5c-12.6,0-22.8-10.2-22.9-22.9V50.3c0-12.6,10.2-22.8,22.9-22.9h28.3c12.6,0,22.8,10.2,22.9,22.9
		L101.6,78.7z"/>
</g>
</svg>
