<?xml version="1.0" encoding="utf-8"?>
<!-- Generator: Adobe Illustrator 24.3.0, SVG Export Plug-In . SVG Version: 6.00 Build 0)  -->
<svg version="1.0" id="Layer_1" xmlns="http://www.w3.org/2000/svg" xmlns:xlink="http://www.w3.org/1999/xlink" x="0px" y="0px"
	 viewBox="0 0 105.2 104.6" style="enable-background:new 0 0 105.2 104.6;" xml:space="preserve">
<style type="text/css">
	.st0{fill-rule:evenodd;clip-rule:evenodd;fill:#E9713E;}
</style>
<g id="main" xmlns:serif="http://www.serif.com/">
	<path class="st0" d="M44.4,104.6C19.3,100.6,0,78.9,0,52.6C0,23.6,23.6,0,52.6,0s52.6,23.6,52.6,52.6c0,26.2-19.3,48-44.4,52V67.8
		h12.3l2.3-15.2H60.8v-9.9c0-4.2,2-8.2,8.6-8.2H76V21.6c0,0-6-1-11.8-1c-12,0-19.9,7.3-19.9,20.5v11.6H30.9v15.2h13.4L44.4,104.6
		L44.4,104.6z"/>
</g>
</svg>
