<?xml version="1.0" encoding="utf-8"?>
<!-- Generator: Adobe Illustrator 24.3.0, SVG Export Plug-In . SVG Version: 6.00 Build 0)  -->
<svg version="1.0" id="Layer_1" xmlns="http://www.w3.org/2000/svg" xmlns:xlink="http://www.w3.org/1999/xlink" x="0px" y="0px"
	 viewBox="0 0 436.1 336.2" style="enable-background:new 0 0 436.1 336.2;" xml:space="preserve">
<style type="text/css">
	.st0{fill-rule:evenodd;clip-rule:evenodd;fill:#E9713E;}
</style>
<path class="st0" d="M245.3,195.3c0-12.5,10.2-22.7,22.7-22.7s22.7,10.2,22.7,22.7c0,12.5-10.2,22.7-22.7,22.7
	S245.3,207.9,245.3,195.3z M268,136.3c-32.6,0-59.1,26.4-59.1,59.1s26.4,59.1,59.1,59.1s59.1-26.4,59.1-59.1S300.6,136.3,268,136.3z
	 M0,299.8c0,20.1,16.3,36.3,36.3,36.3h363.4c20.1,0,36.3-16.3,36.3-36.3v-209c0-20.1-16.3-36.3-36.3-36.3h-34.1L319.2,8
	c-5.4-5.4-12.4-8-19.3-8h-63.5c-7,0-14.1,2.6-19.4,8l-46.3,46.5h-34.3V34.1c0-8.8-7.1-15.9-15.9-15.9H61.3
	c-8.8,0-15.9,7.1-15.9,15.9v20.4h-9.1C16.3,54.5,0,70.8,0,90.9L0,299.8L0,299.8z M118.1,136.3H63.6c-10,0-18.2-8.2-18.2-18.2
	c0-10,8.2-18.2,18.2-18.2h54.5c10,0,18.2,8.2,18.2,18.2C136.3,128.1,128.1,136.3,118.1,136.3z M268,99.9c52.7,0,95.4,42.7,95.4,95.4
	c0,52.7-42.7,95.4-95.4,95.4c-52.7,0-95.4-42.7-95.4-95.4C172.6,142.6,215.3,99.9,268,99.9z"/>
</svg>
