<?xml version="1.0" encoding="utf-8"?>
<!-- Generator: Adobe Illustrator 24.3.0, SVG Export Plug-In . SVG Version: 6.00 Build 0)  -->
<svg version="1.1" id="Layer_1" xmlns="http://www.w3.org/2000/svg" xmlns:xlink="http://www.w3.org/1999/xlink" x="0px" y="0px"
	 viewBox="0 0 48.9 48.9" style="enable-background:new 0 0 48.9 48.9;" xml:space="preserve">
<style type="text/css">
	.st0{opacity:0.79;fill:#A1A3A6;}
</style>
<circle class="st0" cx="24.4" cy="24.4" r="24.4"/>
<g id="user_people_person_users_man">
	<path d="M32.7,24.6c-0.4-0.4-1.1-0.4-1.5,0s-0.4,1.1,0,1.5c1.8,1.8,2.9,4.3,2.9,6.8c0,1.3-3.8,3.2-9.6,3.2s-9.6-1.9-9.6-3.2
		c0-2.6,1-5,2.8-6.8c0.4-0.4,0.4-1.1,0-1.5c-0.4-0.4-1.1-0.4-1.5,0c-2.2,2.2-3.5,5.2-3.4,8.3c0,3.5,6.1,5.3,11.8,5.3
		s11.8-1.9,11.8-5.3C36.2,29.9,35,26.8,32.7,24.6z"/>
	<path d="M24.4,25.5c4.1,0,7.5-3.4,7.5-7.5s-3.4-7.5-7.5-7.5S17,13.9,17,18S20.3,25.5,24.4,25.5z M24.4,12.7c3,0,5.3,2.4,5.3,5.3
		s-2.4,5.3-5.3,5.3S19.1,21,19.1,18S21.5,12.7,24.4,12.7z"/>
</g>
</svg>
